<?xml version="1.0" standalone="no"?>
<!DOCTYPE svg PUBLIC "-//W3C//DTD SVG 20010904//EN"
 "http://www.w3.org/TR/2001/REC-SVG-20010904/DTD/svg10.dtd">
<svg version="1.0" xmlns="http://www.w3.org/2000/svg"
 width="490.000000pt" height="490.000000pt" viewBox="0 0 490.000000 490.000000"
 preserveAspectRatio="xMidYMid meet">

<g transform="translate(0.000000,490.000000) scale(0.100000,-0.100000)"
fill="#000000" stroke="none">
<path d="M2270 4483 c-287 -29 -571 -120 -803 -256 -1023 -603 -1277 -1954
-542 -2892 35 -44 112 -127 171 -185 l108 -105 8 57 c4 32 15 69 24 83 l17 25
-90 93 c-213 220 -360 476 -439 763 -81 297 -85 632 -10 924 17 64 21 100 15
112 -12 23 -12 125 1 133 6 3 10 17 10 31 0 28 24 79 43 91 7 4 20 20 29 35
10 14 34 34 55 43 25 11 47 31 61 56 51 89 178 242 285 345 243 234 542 391
882 464 145 31 467 39 620 15 395 -62 733 -233 1007 -511 107 -109 150 -161
228 -277 110 -165 215 -417 254 -607 62 -308 41 -670 -55 -946 -44 -127 -128
-300 -196 -402 -32 -48 -61 -92 -65 -98 -4 -6 22 -3 60 7 37 10 85 18 107 18
36 1 43 5 66 44 114 181 206 432 251 677 28 153 30 475 4 625 -95 557 -385
1011 -840 1317 -326 218 -703 331 -1094 326 -75 0 -153 -3 -172 -5z"/>
<path d="M2189 4255 c-468 -76 -888 -334 -1147 -703 l-43 -62 41 0 c36 0 48
-6 85 -43 23 -24 55 -62 70 -85 23 -34 30 -40 48 -33 12 5 36 6 52 4 28 -4 36
1 77 54 25 32 76 88 112 126 58 58 66 72 66 105 0 45 18 112 30 112 4 0 22 22
38 49 44 70 86 98 202 132 87 25 109 35 153 75 59 53 168 108 247 125 32 7 92
9 147 6 99 -6 115 2 92 45 -14 26 -6 32 22 17 20 -10 25 -9 40 10 24 29 32 26
24 -8 -5 -25 -2 -30 26 -42 l33 -13 -32 -8 c-48 -13 -42 -41 14 -67 25 -12 64
-39 87 -60 38 -34 56 -41 192 -74 143 -35 151 -38 182 -74 18 -21 35 -49 38
-63 4 -18 29 -39 86 -73 440 -266 699 -794 640 -1306 -22 -188 -91 -403 -171
-533 l-31 -50 24 -31 c23 -31 48 -108 43 -131 -2 -6 -1 -8 1 -3 11 19 24 4 18
-22 -5 -25 -2 -30 26 -42 l33 -13 -31 -8 c-24 -6 -32 -15 -37 -40 l-7 -33 -15
28 c-8 15 -18 27 -23 27 -5 0 -21 -18 -36 -40 -16 -23 -42 -53 -59 -68 l-31
-27 55 2 c30 2 82 10 115 18 33 8 71 15 85 15 19 0 36 16 77 73 159 222 252
436 305 699 20 97 23 142 22 328 0 194 -3 227 -27 341 -146 689 -666 1206
-1357 1351 -127 26 -474 34 -601 13z m-864 -624 c-5 -25 -2 -30 26 -42 l33
-13 -31 -8 c-24 -6 -32 -15 -37 -40 l-7 -33 -15 28 c-13 24 -19 27 -46 22
l-30 -7 17 25 c13 21 14 30 5 47 -15 28 -8 35 21 19 20 -10 25 -9 38 9 22 30
34 27 26 -7z m2330 -20 c-5 -25 -2 -30 26 -42 l33 -13 -31 -8 c-24 -6 -32 -15
-37 -40 l-7 -33 -15 28 c-13 23 -20 28 -40 23 -27 -7 -29 -3 -14 25 8 13 7 25
0 40 -15 27 -7 34 21 18 20 -10 25 -9 38 9 22 30 34 27 26 -7z m350 -1030 c-5
-25 -2 -30 26 -42 l33 -13 -31 -8 c-24 -6 -32 -15 -37 -40 l-7 -33 -15 28
c-13 24 -19 27 -46 22 l-30 -7 17 25 c13 21 14 30 5 47 -15 28 -8 35 21 19 20
-10 25 -9 38 9 22 30 34 27 26 -7z"/>
<path d="M2208 4061 c-100 -21 -113 -28 -201 -111 -52 -49 -71 -60 -98 -60
-89 0 -220 -69 -241 -126 -7 -21 -19 -34 -30 -34 -37 0 -43 -35 -40 -259 1
-175 5 -219 18 -238 12 -19 13 -28 4 -38 -7 -9 -11 -43 -9 -91 l4 -77 -60 -53
c-33 -29 -65 -54 -71 -54 -6 0 -19 19 -29 43 -30 73 -42 91 -74 112 -29 19
-30 23 -31 92 0 67 -2 73 -31 97 -36 31 -42 31 -80 9 -15 -9 -30 -15 -32 -12
-16 19 -87 130 -87 136 -1 17 -56 47 -87 47 -18 0 -41 -9 -53 -19 -13 -12 -33
-18 -50 -17 -39 4 -70 -14 -81 -48 -6 -15 -19 -30 -29 -33 -12 -3 -23 -21 -30
-48 -7 -24 -16 -54 -21 -67 -24 -60 2 -114 103 -218 46 -47 49 -54 38 -75 -31
-57 21 -302 76 -360 15 -16 24 -37 24 -57 0 -24 11 -44 40 -76 22 -24 49 -64
61 -90 24 -56 43 -81 119 -156 45 -45 67 -58 120 -74 117 -34 145 -33 233 11
42 22 77 38 77 36 0 -2 -13 -21 -29 -41 -36 -46 -71 -140 -71 -190 0 -55 41
-135 83 -160 19 -12 37 -22 40 -22 2 0 23 28 46 63 30 46 41 74 41 101 0 22 8
48 19 62 18 23 18 28 5 59 -8 21 -13 64 -13 107 l2 73 8 -72 c5 -40 15 -86 24
-102 19 -38 19 -43 -5 -71 -18 -21 -28 -60 -15 -60 3 0 28 17 55 37 34 25 50
44 50 60 0 12 5 34 12 48 11 24 15 25 57 19 25 -3 62 -9 81 -13 20 -5 43 -5
53 -2 21 8 61 74 93 156 13 33 23 53 24 44 0 -26 -30 -119 -51 -152 -26 -44
-25 -47 19 -46 41 1 100 16 69 18 -14 1 -16 7 -11 28 13 57 15 57 116 55 108
-3 105 12 -4 23 -42 4 -71 12 -74 20 -3 7 -1 31 5 52 l11 39 67 -7 c38 -5 92
-13 122 -18 29 -6 55 -11 57 -11 1 0 24 -20 51 -45 26 -25 58 -48 70 -51 13
-3 55 4 94 16 39 11 73 19 75 17 8 -7 -113 -67 -135 -67 -23 0 -37 -22 -26
-39 4 -7 16 -4 33 9 15 11 55 27 90 35 104 27 206 -6 252 -81 22 -34 40 -44
40 -22 0 7 17 29 37 50 38 39 52 71 27 61 -8 -3 -11 -9 -8 -14 6 -11 -76 -50
-88 -43 -19 12 -5 41 29 64 34 23 35 25 14 28 -30 5 -23 33 13 51 51 24 99 25
144 2 49 -25 97 -86 106 -135 5 -27 12 -35 35 -39 16 -4 45 -20 65 -37 l35
-31 45 61 c101 138 125 230 86 347 -62 188 -105 287 -143 325 -50 52 -97 129
-97 162 0 33 -24 82 -45 89 -8 4 -23 22 -32 41 -15 33 -15 38 0 73 39 88 41
187 4 275 -23 55 -132 155 -194 178 -29 11 -58 20 -62 20 -16 0 -33 28 -21 35
6 3 10 46 10 101 0 91 -1 97 -28 123 -35 36 -126 69 -216 81 -92 12 -99 15
-171 73 -75 60 -105 76 -175 93 -100 23 -161 24 -252 5z m201 -42 c63 -14 140
-54 186 -96 32 -30 34 -33 10 -18 -16 10 -36 24 -42 31 -15 14 -102 48 -148
57 -16 4 -24 4 -17 1 6 -3 12 -16 12 -30 0 -27 -8 -30 -111 -39 -36 -3 -86
-12 -110 -19 -24 -8 -56 -17 -70 -20 -15 -3 -57 -35 -95 -71 l-69 -66 55 40
c30 23 61 46 67 51 7 6 34 20 60 32 41 18 66 21 183 21 181 0 216 -13 329
-122 l46 -43 -40 29 c-119 89 -211 118 -350 111 -116 -6 -184 -31 -278 -102
-99 -74 -107 -93 -107 -244 0 -66 3 -134 6 -151 17 -85 163 -185 317 -217 79
-17 163 -13 243 11 68 20 66 11 -3 -15 -67 -26 -196 -37 -261 -22 -36 8 -43 8
-38 -4 13 -35 -39 -29 -98 11 l-37 25 18 -24 c10 -13 29 -31 43 -40 20 -13 22
-16 7 -16 -23 0 -146 121 -181 179 -4 7 -17 47 -27 89 -36 149 -16 353 47 460
30 52 122 144 169 169 86 47 194 63 284 42z m-485 -206 c-4 -16 -15 -47 -26
-71 -10 -24 -18 -50 -18 -57 0 -8 -19 -27 -42 -42 l-43 -29 -3 -99 c-2 -114 7
-142 55 -165 21 -10 37 -29 50 -60 17 -41 18 -50 5 -105 l-15 -61 -61 -21
c-33 -12 -69 -25 -78 -28 -28 -11 -24 49 4 75 l22 20 -26 0 c-52 0 -58 -8 -58
-71 0 -33 -4 -59 -10 -59 -6 0 -10 28 -10 65 0 73 10 84 77 86 l38 1 -45 20
c-25 12 -40 23 -33 25 7 2 22 -1 35 -8 21 -11 21 -10 -3 13 -28 26 -46 92 -34
128 5 16 2 20 -14 20 -13 0 -22 -7 -22 -17 -3 -33 3 -87 12 -110 5 -14 5 -23
-1 -23 -18 0 -31 52 -28 109 l3 56 45 -2 c40 -2 42 -1 16 7 -16 5 -39 19 -52
31 -22 20 -24 31 -24 105 0 111 8 130 72 159 37 17 46 24 31 24 -58 2 3 58 95
88 89 29 94 29 86 -4z m993 -9 c57 -26 93 -70 92 -114 -1 -24 -1 -24 -11 5
-16 45 -37 65 -103 94 -116 52 -115 51 -70 44 22 -3 63 -17 92 -29z m-632 -12
c-119 -41 -184 -116 -185 -212 -1 -76 -43 -107 -87 -64 -22 23 -25 31 -19 71
17 124 146 222 291 222 l50 0 -50 -17z m153 -4 c-6 -18 -28 -21 -28 -4 0 9 7
16 16 16 9 0 14 -5 12 -12z m347 -110 c4 -15 15 -30 25 -33 11 -3 29 -18 41
-33 20 -25 21 -34 14 -127 -4 -55 -11 -108 -16 -118 -6 -9 -27 -28 -49 -42
-21 -13 -41 -34 -45 -45 -4 -12 -8 -20 -10 -18 -2 2 4 31 14 63 16 52 19 56
22 31 l4 -28 25 20 c23 18 26 29 31 119 6 99 -2 142 -28 151 -10 3 -13 -15
-14 -65 l-1 -68 -13 90 c-8 50 -23 114 -34 143 -12 29 -21 56 -21 60 0 15 49
-74 55 -100z m-928 -155 c0 -54 3 -108 7 -120 5 -17 4 -23 -8 -23 -26 0 -36
35 -36 129 0 75 3 92 18 100 9 6 18 11 18 11 1 0 2 -44 1 -97z m863 -130 c-27
-123 -221 -223 -410 -210 -72 5 -226 47 -201 55 6 2 33 -4 59 -13 130 -46 341
-20 438 54 27 20 58 51 70 69 23 34 43 124 46 213 1 37 3 27 6 -31 2 -47 -2
-108 -8 -137z m262 150 c10 -9 23 -34 29 -55 11 -43 6 -76 -6 -43 -28 74 -36
85 -72 105 l-38 21 34 -6 c19 -3 43 -13 53 -22z m-317 -90 c-6 -38 -17 -56
-68 -108 -53 -54 -72 -66 -131 -84 -68 -21 -154 -26 -191 -12 -13 5 1 10 46
14 161 15 304 107 330 212 15 58 24 44 14 -22z m456 26 c63 -32 124 -94 150
-152 25 -56 31 -159 12 -206 -7 -18 -9 -3 -9 60 1 74 -3 91 -28 144 -33 67
-68 104 -141 146 -57 33 -45 39 16 8z m-354 -61 c-9 -57 -27 -121 -33 -115 -6
5 28 157 35 157 2 0 1 -19 -2 -42z m-683 17 c9 -26 -5 -45 -34 -45 -36 0 -57
24 -40 45 7 8 25 15 40 15 16 0 30 -7 34 -15z m-999 -81 c19 -26 35 -51 35
-57 0 -6 12 -26 27 -45 20 -27 24 -37 13 -40 -21 -7 -96 -80 -89 -86 3 -4 18
3 33 15 20 16 40 21 81 20 47 0 55 2 55 18 0 10 9 29 20 42 l19 24 1 -73 c0
-64 -3 -76 -24 -97 -33 -33 -101 -53 -128 -36 -16 10 -19 10 -13 -1 5 -7 14
-20 22 -29 11 -14 10 -17 -11 -27 -35 -16 -105 7 -185 58 -34 22 -65 40 -69
40 -11 0 -65 71 -58 77 3 3 33 -13 67 -36 66 -44 74 -47 84 -30 4 6 -25 40
-64 77 -65 61 -82 88 -65 105 12 12 69 -25 116 -76 49 -52 78 -58 78 -15 0 17
-12 30 -46 48 -45 25 -84 73 -84 104 0 33 40 14 101 -49 65 -68 94 -84 112
-66 8 8 5 16 -12 27 -31 22 -81 102 -81 131 0 37 26 27 65 -23z m2062 -16 c52
-54 64 -104 42 -180 -12 -44 -35 -49 -93 -22 -31 15 -35 22 -41 70 -3 30 -11
56 -16 60 -6 4 -6 10 -1 17 6 7 13 36 17 64 l7 53 26 -14 c15 -8 41 -29 59
-48z m-1057 -94 c0 -8 -35 14 -70 46 -32 28 -30 28 18 -6 28 -20 52 -38 52
-40z m600 -37 c-44 -55 -130 -127 -152 -127 -7 0 -4 6 7 12 35 20 129 115 155
157 15 23 26 33 28 25 2 -8 -15 -38 -38 -67z m-663 -103 c125 -84 210 -109
342 -101 87 5 176 32 216 65 20 17 20 17 0 -7 -23 -26 -56 -45 -129 -72 l-51
-19 45 5 c51 7 50 1 -6 -20 l-39 -15 45 6 c33 4 41 2 30 -5 -8 -6 -24 -11 -35
-11 -17 0 -17 -2 -5 -10 8 -5 12 -10 8 -10 -4 0 -40 -5 -81 -10 -64 -9 -89 -8
-171 9 -84 18 -105 26 -154 65 -61 47 -122 109 -122 125 0 5 21 -11 46 -37 41
-42 44 -44 30 -16 -11 23 -12 34 -4 42 9 9 5 19 -17 42 -34 36 -42 37 -48 8
-3 -17 -5 -15 -6 9 -2 62 8 67 44 20 18 -24 46 -52 62 -63z m731 34 c9 -33 7
-41 -19 -76 -16 -22 -41 -48 -57 -58 -19 -13 -14 -3 21 36 46 51 48 55 41 99
-8 53 -1 53 14 -1z m202 -14 c36 -8 74 -21 85 -28 11 -7 46 -16 77 -20 69 -9
100 -32 134 -97 14 -28 35 -54 48 -59 25 -9 36 -29 36 -65 0 -37 54 -142 99
-190 23 -25 47 -59 55 -77 23 -54 46 -132 46 -152 0 -11 10 -39 21 -64 23 -47
28 -127 11 -172 -7 -18 -8 -5 -5 46 5 58 2 77 -16 112 -11 23 -21 53 -21 67 0
38 -15 61 -63 97 -39 28 -37 30 9 11 48 -19 -34 115 -93 154 -14 9 -41 20 -61
24 l-37 7 43 1 c23 0 42 6 42 12 0 6 -12 26 -26 45 -16 21 -28 50 -30 74 -1
22 -5 43 -8 48 -3 5 -33 19 -66 31 -65 24 -78 34 -30 25 35 -8 36 -5 10 46
-21 42 -57 59 -130 61 -19 1 -48 5 -65 9 -28 7 -29 8 -5 9 l25 2 -25 11 c-14
6 -54 18 -90 28 -80 22 -59 25 30 4z m-720 -24 c0 -5 -7 -10 -15 -10 -8 0 -15
5 -15 10 0 6 7 10 15 10 8 0 15 -4 15 -10z m-325 -39 c10 -33 99 -111 160
-141 124 -61 246 -72 386 -35 83 22 115 19 185 -20 71 -40 138 -46 201 -20 53
22 52 10 -3 -24 -57 -37 -96 -45 -172 -38 -55 5 -435 -9 -497 -19 -20 -3 -37
-15 -51 -37 -21 -30 -21 -41 -16 -201 4 -147 7 -171 23 -187 11 -11 28 -19 39
-19 23 0 24 -6 9 -67 -12 -45 -12 -45 -48 -39 -20 3 -47 9 -61 12 -24 6 -24 6
-5 -8 11 -9 37 -21 57 -27 37 -12 38 -13 23 -39 -29 -55 -27 -54 -90 -37 -65
17 -99 36 -115 65 -14 26 -50 141 -50 160 0 9 21 39 46 68 25 28 44 52 42 52
-3 0 -22 -9 -44 -19 -21 -11 -40 -18 -41 -17 -1 1 4 24 12 51 8 27 18 107 20
179 6 122 5 128 -9 93 -8 -21 -22 -47 -32 -58 -18 -20 -18 -20 -36 15 -22 43
-27 45 -20 10 13 -68 -45 -143 -114 -147 -38 -2 -49 7 -58 53 -3 14 -11 33
-18 43 -11 15 -13 12 -10 -28 5 -53 -11 -60 -27 -12 -7 17 -30 57 -51 89 -22
31 -40 59 -40 62 0 3 17 10 38 16 38 10 76 3 147 -26 18 -7 19 -6 6 10 -23 28
-87 56 -128 57 l-38 1 35 15 c22 10 51 13 80 10 l45 -6 -35 16 c-19 8 -52 18
-72 20 -44 6 -49 19 -13 33 14 5 25 14 25 19 0 10 165 112 211 130 43 17 97
13 104 -8z m310 -6 c76 -26 70 -34 -8 -10 -48 14 -90 34 -72 34 6 0 42 -11 80
-24z m263 10 c-20 -8 -59 -16 -85 -19 -46 -6 -45 -5 17 13 76 21 122 26 68 6z
m-1125 -47 c14 -19 17 -34 12 -58 -9 -39 -88 -124 -135 -144 l-35 -15 35 0
c19 0 54 8 78 19 38 17 41 17 33 2 -14 -26 -42 -49 -102 -82 -61 -34 -40 -41
30 -10 56 26 70 25 81 -5 11 -29 18 -31 49 -9 22 16 23 16 13 -3 -15 -27 -72
-69 -124 -93 -47 -20 -27 -27 31 -10 40 11 63 -3 79 -49 18 -51 -12 -80 -113
-105 -11 -3 14 -4 56 -2 44 2 89 10 108 19 22 11 31 12 29 4 -2 -7 -24 -22
-48 -33 -41 -20 -42 -22 -23 -33 22 -11 43 -59 43 -97 0 -62 -42 -94 -124 -94
-60 1 -112 35 -159 105 -35 51 -34 56 5 44 56 -16 55 -10 -3 22 -49 27 -56 34
-56 62 0 18 8 41 18 52 18 20 18 20 -21 17 -41 -4 -43 -11 -12 -59 8 -13 10
-23 5 -23 -17 0 -40 34 -48 68 l-7 32 44 1 43 0 -45 20 c-85 36 -94 44 -118
110 -17 47 -23 85 -23 156 -1 52 1 97 5 100 3 4 6 -5 6 -19 0 -41 71 -88 134
-88 83 0 211 78 236 145 8 21 7 34 -4 57 -18 36 -1 33 27 -4z m75 -163 c0 -16
-2 -15 -8 5 -11 34 -11 60 0 35 5 -11 8 -29 8 -40z m86 -173 c70 -108 91 -172
83 -250 -3 -34 -4 -33 -5 10 -2 53 -35 150 -57 168 -12 10 -15 9 -15 -3 0 -9
-11 -29 -25 -44 l-26 -28 22 38 c26 45 21 69 -27 147 -19 30 -34 67 -33 80 0
23 1 23 8 5 5 -11 39 -67 75 -123z m1079 21 c12 -14 17 -52 23 -159 l7 -140
-26 -21 c-23 -18 -45 -20 -234 -26 -155 -4 -211 -3 -220 6 -8 8 -13 65 -15
169 -3 133 -1 159 12 165 24 11 144 20 296 21 123 2 143 0 157 -15z m171 -15
c5 -10 7 -10 12 0 8 17 51 15 58 -3 3 -8 12 -15 20 -15 25 0 49 -46 43 -83 -3
-20 0 -40 9 -52 30 -40 13 -95 -36 -115 -16 -7 -30 -16 -30 -21 0 -14 -48 -11
-54 4 -5 10 -7 10 -12 0 -7 -15 -54 -17 -54 -3 0 6 -7 10 -15 10 -18 0 -21 46
-4 52 18 6 1 168 -17 168 -22 0 -17 41 6 47 11 3 20 9 20 14 0 14 48 11 54 -3z
m396 -33 l0 -35 53 0 c79 0 87 -12 36 -48 -24 -16 -53 -45 -63 -63 l-19 -34
24 21 c30 27 60 36 112 36 59 -1 65 -16 13 -36 -60 -23 -77 -43 -32 -38 75 9
122 -50 114 -143 -3 -36 -6 -40 -28 -38 -14 2 -58 4 -98 5 l-73 1 6 38 c8 47
-8 79 -40 79 -15 0 -31 10 -41 25 -22 34 -10 78 33 126 20 22 32 39 29 39 -14
0 -72 -33 -93 -53 -21 -18 -23 -19 -23 -3 0 9 7 31 16 47 21 42 12 59 -31 59
-33 0 -35 2 -21 15 21 21 55 34 94 34 30 1 32 -1 32 -34z m-132 -197 c11 -18
22 -48 26 -66 3 -19 15 -46 26 -62 11 -15 20 -34 20 -42 0 -7 -9 1 -19 18 -11
18 -24 35 -30 38 -6 4 -11 22 -11 40 0 19 -9 43 -20 56 -18 20 -27 50 -16 50
2 0 13 -15 24 -32z m-1323 -140 c-22 -18 -74 -67 -116 -109 -88 -90 -116 -100
-201 -75 -29 9 -60 21 -68 27 -12 9 -12 10 4 5 119 -39 163 -31 235 42 31 31
67 65 81 75 14 10 40 29 59 42 49 36 53 30 6 -7z m-10 -229 c-40 -44 -85 -131
-85 -164 0 -11 9 -40 20 -65 l20 -45 -25 28 c-55 62 -38 156 45 240 58 58 76
62 25 6z"/>
<path d="M2240 4000 c-13 -9 -13 -10 0 -9 8 0 24 4 35 9 l20 9 -20 0 c-11 0
-27 -4 -35 -9z"/>
<path d="M2006 3850 c-32 -36 -42 -50 -33 -50 2 0 23 20 47 45 24 25 39 45 33
45 -6 0 -27 -18 -47 -40z"/>
<path d="M1763 3764 c-19 -18 -22 -24 -10 -20 10 3 24 6 32 6 7 0 15 9 18 20
7 27 -6 25 -40 -6z"/>
<path d="M1778 3733 c6 -2 18 -2 25 0 6 3 1 5 -13 5 -14 0 -19 -2 -12 -5z"/>
<path d="M1683 3675 c-17 -12 -23 -29 -28 -90 -9 -93 -3 -118 36 -146 l31 -22
-17 34 c-15 27 -16 48 -11 118 4 57 12 91 23 103 13 15 13 18 2 18 -8 0 -24
-7 -36 -15z"/>
<path d="M3090 3298 c-13 -30 18 -121 43 -126 25 -5 23 73 -3 116 -23 38 -27
39 -40 10z"/>
<path d="M1815 3051 l-40 -19 51 -1 c37 -1 59 -8 84 -26 19 -14 35 -25 37 -25
1 0 -11 20 -28 45 -34 50 -46 53 -104 26z"/>
<path d="M1615 2935 c-33 -26 -32 -29 8 -39 25 -6 27 -5 18 12 -7 13 -7 22 1
30 23 23 2 21 -27 -3z"/>
<path d="M970 2817 c0 -31 39 -168 54 -192 7 -11 28 -25 46 -32 30 -11 31 -11
17 5 -19 22 -38 82 -39 123 -1 24 6 38 28 56 l29 23 -30 0 c-17 0 -47 9 -68
20 l-37 20 0 -23z"/>
<path d="M1190 2345 c0 -15 33 -62 52 -74 18 -11 18 -11 3 12 -8 13 -13 32 -9
41 3 9 2 16 -4 16 -6 0 -17 3 -26 6 -9 3 -16 3 -16 -1z"/>
<path d="M2200 2650 c-30 -30 -26 -73 11 -104 37 -31 49 -32 83 -5 29 23 33
47 11 88 -23 46 -71 55 -105 21z m74 -32 c8 -14 7 -21 -6 -34 -30 -30 -75 9
-48 42 16 18 39 15 54 -8z"/>
<path d="M2386 2654 c-24 -23 -20 -53 9 -66 21 -9 28 -8 45 7 25 23 25 30 0
55 -24 24 -34 25 -54 4z m34 -34 c0 -5 -4 -10 -10 -10 -5 0 -10 5 -10 10 0 6
5 10 10 10 6 0 10 -4 10 -10z"/>
<path d="M2583 2539 c-7 -36 -13 -73 -13 -82 0 -24 -8 -26 -158 -52 l-137 -24
150 5 c99 4 154 10 163 18 9 9 12 40 10 107 l-3 94 -12 -66z"/>
<path d="M2760 2600 c0 -27 3 -30 34 -30 47 0 66 9 66 30 0 21 -19 30 -66 30
-31 0 -34 -3 -34 -30z"/>
<path d="M2770 2490 c0 -29 2 -30 44 -30 46 0 72 19 62 45 -4 11 -20 15 -56
15 -49 0 -50 -1 -50 -30z"/>
<path d="M3095 3633 c-7 -49 1 -63 40 -63 46 0 183 -119 220 -190 19 -38 27
-207 13 -286 -8 -41 -8 -41 31 -54 52 -17 65 -7 45 31 -8 17 -13 33 -10 36 2
3 12 -9 21 -26 21 -42 32 -39 40 12 8 45 34 103 35 77 0 -9 -4 -20 -9 -25 -10
-11 -20 -105 -11 -105 3 0 14 7 24 15 31 23 42 18 12 -6 -32 -26 -21 -40 44
-56 29 -7 36 -11 20 -12 -14 0 -42 3 -62 8 -21 5 -38 7 -38 4 0 -3 9 -18 21
-35 30 -42 14 -48 -21 -7 -25 29 -29 31 -30 14 0 -11 -6 -45 -14 -74 -13 -50
-12 -56 6 -87 11 -19 32 -47 48 -64 15 -16 42 -60 61 -97 18 -38 41 -84 51
-104 10 -20 18 -48 18 -63 0 -26 29 -98 43 -104 10 -5 9 -172 -2 -172 -5 0
-12 -12 -16 -27 -9 -38 -87 -162 -123 -196 -31 -30 -31 -29 -2 -112 15 -43
123 193 166 363 89 350 24 737 -175 1037 -94 142 -248 295 -380 377 l-59 37
-7 -46z m595 -972 c0 -10 -24 -21 -45 -21 -21 0 -27 43 -8 57 14 11 20 9 35
-7 10 -10 18 -23 18 -29z"/>
<path d="M1509 3453 c-20 -21 -59 -67 -87 -102 -50 -62 -51 -65 -37 -92 8 -15
15 -53 15 -83 0 -30 5 -58 11 -62 6 -3 27 -32 46 -63 20 -31 37 -58 39 -60 1
-1 20 11 41 28 l38 30 -2 93 c-1 51 -7 118 -13 148 -5 30 -8 73 -5 95 3 22 2
55 -2 73 l-8 33 -36 -38z m-39 -162 c0 -5 -7 -12 -16 -15 -22 -9 -24 -8 -24 9
0 8 9 15 20 15 11 0 20 -4 20 -9z m40 -161 c0 -5 -4 -10 -10 -10 -5 0 -10 5
-10 10 0 6 5 10 10 10 6 0 10 -4 10 -10z"/>
<path d="M3365 3011 c18 -36 34 -42 63 -23 26 17 14 32 -25 32 -13 0 -23 5
-23 10 0 6 -7 10 -15 10 -14 0 -14 -3 0 -29z"/>
<path d="M762 2923 c-129 -583 48 -1187 469 -1605 l68 -67 30 15 c70 35 192
49 261 29 13 -4 15 9 13 84 l-2 89 -92 89 c-117 112 -205 230 -274 365 -51 98
-115 269 -115 305 0 21 -46 93 -102 161 -26 31 -48 63 -48 70 0 13 -28 16 -46
4 -6 -4 -14 -20 -18 -37 l-8 -30 -15 28 c-12 25 -18 27 -45 22 l-30 -7 17 25
c13 21 14 30 5 47 -15 28 -8 35 21 19 20 -10 25 -9 40 10 23 29 32 26 24 -7
-5 -24 -2 -30 20 -40 22 -10 25 -9 25 9 0 11 -13 40 -30 63 -44 65 -72 173
-74 287 -1 93 -3 97 -33 133 -18 20 -34 36 -36 36 -2 0 -14 -44 -25 -97z m503
-1292 c-5 -25 -2 -30 26 -42 l33 -13 -31 -8 c-24 -6 -32 -15 -37 -40 l-7 -33
-15 28 c-13 24 -19 27 -46 22 l-30 -7 17 25 c13 21 14 30 5 47 -15 28 -8 35
21 19 20 -10 25 -9 38 9 22 30 34 27 26 -7z"/>
<path d="M3432 2974 c-21 -14 -21 -17 -7 -44 8 -16 15 -37 15 -47 1 -34 17 9
22 60 6 51 3 55 -30 31z"/>
<path d="M1225 2093 c10 -43 80 -182 126 -253 57 -89 159 -210 219 -260 l49
-41 7 28 c3 15 13 50 21 78 14 41 14 50 2 54 -32 10 -109 107 -124 155 -18 61
-19 81 -2 137 l14 45 -66 1 c-72 1 -165 29 -208 63 -35 27 -47 25 -38 -7z"/>
<path d="M3080 2105 c-14 -8 -19 -14 -10 -14 8 0 26 6 40 14 14 8 19 14 10 14
-8 0 -26 -6 -40 -14z"/>
<path d="M3337 2095 c6 -32 11 -41 17 -34 2 2 -2 18 -10 34 l-13 30 6 -30z"/>
<path d="M3165 2064 c-54 -36 -58 -41 -51 -53 8 -12 79 20 92 41 4 6 -10 1
-32 -12 l-39 -23 40 36 c48 43 44 47 -10 11z"/>
<path d="M2785 2036 c-52 -19 -100 -75 -114 -132 -10 -37 -15 -45 -29 -39 -45
17 -109 16 -172 -4 l-65 -21 -25 28 c-123 139 -339 132 -502 -16 -31 -29 -71
-75 -88 -102 -43 -67 -85 -191 -101 -295 -10 -73 -10 -93 5 -152 l16 -67 -37
-38 -36 -37 -25 24 c-29 29 -76 40 -140 32 -142 -18 -182 -58 -182 -182 0 -39
-4 -46 -35 -65 -56 -35 -115 -189 -100 -262 8 -38 40 -76 73 -89 19 -7 23 -14
18 -37 -38 -193 2 -250 169 -239 79 5 81 6 117 47 29 32 38 38 45 26 23 -41
116 -58 198 -35 49 14 113 76 121 119 5 25 11 31 25 27 25 -7 113 17 146 39
22 14 33 15 77 5 41 -9 62 -8 109 4 32 8 69 15 83 15 64 0 119 24 164 70 l46
47 27 -23 c54 -46 114 -51 215 -17 31 10 52 11 77 4 41 -11 143 9 187 38 24
15 36 16 79 7 41 -8 66 -7 132 8 45 10 107 20 137 21 126 4 189 36 225 109 13
28 27 68 31 89 9 51 33 49 92 -12 55 -57 87 -74 165 -91 112 -25 237 16 295
97 33 46 54 132 42 173 -8 27 -7 36 5 43 21 11 45 61 45 93 0 66 -76 133 -181
160 -56 14 -67 14 -128 -1 -36 -9 -84 -25 -105 -36 -34 -18 -45 -19 -86 -9
-40 10 -55 8 -106 -9 -35 -13 -91 -22 -139 -23 -58 -2 -91 -9 -121 -25 -33
-17 -52 -20 -105 -16 -35 3 -81 1 -102 -5 -33 -9 -38 -8 -49 11 -7 12 -14 33
-16 46 -4 32 -30 81 -42 81 -15 0 -12 26 4 39 11 9 22 6 51 -13 68 -47 160
-43 251 9 54 32 139 126 154 171 24 73 -11 136 -85 150 -32 6 -33 8 -33 49 1
66 -30 116 -86 140 -46 19 -50 19 -113 2 -35 -9 -78 -26 -93 -37 -24 -17 -33
-18 -57 -9 -15 6 -45 11 -67 12 -34 2 -40 6 -50 36 -6 19 -23 43 -38 54 -35
26 -120 32 -173 13z m115 -125 c0 -34 -40 -77 -80 -86 -39 -8 -50 0 -50 36 0
45 39 79 90 79 37 0 40 -2 40 -29z m450 -56 c11 -13 10 -34 -5 -114 -10 -55
-15 -106 -12 -115 10 -25 49 -19 95 15 24 17 46 29 49 25 11 -10 -51 -79 -102
-114 -40 -27 -56 -32 -94 -30 -39 3 -48 7 -59 31 -13 27 -8 92 15 185 4 15 1
22 -10 22 -29 0 -72 -47 -127 -139 -69 -115 -105 -151 -159 -158 -33 -5 -41
-3 -41 10 0 14 -7 12 -46 -8 -132 -70 -170 -2 -121 215 24 102 29 109 105 125
29 6 32 4 32 -18 0 -14 -9 -69 -20 -122 -21 -103 -25 -145 -12 -145 4 0 23 11
43 24 34 23 35 27 52 132 19 120 30 138 93 150 58 11 64 -2 43 -108 -9 -51
-16 -94 -14 -96 1 -1 23 33 47 75 51 87 85 123 143 152 48 24 88 26 105 6z
m-1070 -42 c42 -44 70 -117 53 -134 -5 -5 -27 -7 -50 -3 -33 5 -43 12 -57 40
-33 70 -92 69 -160 0 -78 -81 -136 -223 -136 -334 0 -74 30 -106 96 -105 57 1
125 26 209 77 89 53 111 46 55 -18 -79 -90 -202 -141 -326 -134 -78 4 -108 18
-148 72 -32 42 -28 194 8 295 68 192 192 295 350 288 65 -3 70 -4 106 -44z
m366 -76 c31 -28 36 -38 36 -80 0 -135 -109 -267 -219 -267 -50 0 -82 18 -110
59 -33 48 -30 104 8 180 45 89 118 141 202 141 40 0 53 -5 83 -33z m-434 -157
c10 0 14 -14 14 -54 -1 -49 -4 -55 -31 -71 -68 -40 -145 -76 -154 -71 -22 14
26 159 74 222 l25 33 29 -30 c16 -16 36 -29 43 -29z m517 -242 c19 -5 47 -8
63 -6 37 6 37 -14 -2 -42 -16 -11 -37 -33 -46 -49 -13 -22 -28 -30 -74 -39
-32 -7 -73 -22 -91 -35 -32 -21 -37 -22 -74 -9 -32 11 -51 12 -100 2 -33 -6
-65 -16 -72 -21 -7 -6 -28 -6 -57 2 l-47 12 38 25 c21 13 57 43 81 66 41 40
45 41 112 42 60 0 79 6 137 36 38 20 75 34 83 31 8 -3 30 -10 49 -15z m323
-55 c-3 -48 -1 -53 17 -53 11 0 23 -4 26 -10 10 -15 -12 -47 -37 -53 -21 -6
-26 -20 -51 -148 -17 -83 -25 -145 -20 -150 6 -6 27 3 51 21 32 23 42 37 42
58 0 47 29 129 57 162 59 70 188 99 235 52 18 -18 23 -32 21 -69 -1 -25 -7
-49 -13 -53 -6 -4 -45 -15 -86 -26 -80 -20 -89 -30 -82 -90 2 -24 8 -30 32
-32 30 -4 86 17 147 54 36 22 36 22 49 130 15 123 25 138 94 148 58 9 67 3 59
-37 l-6 -32 37 32 c46 41 108 73 139 73 38 0 68 -31 78 -80 8 -43 7 -46 -22
-72 -30 -25 -76 -41 -92 -31 -4 2 -5 20 -1 40 13 69 -44 62 -118 -15 -41 -43
-46 -53 -56 -121 -13 -87 -35 -116 -99 -126 -43 -7 -43 -7 -43 25 l0 31 -34
-26 c-52 -40 -128 -65 -195 -65 -53 0 -62 3 -81 27 l-21 26 -37 -36 c-33 -33
-104 -67 -138 -67 -21 0 -44 30 -44 57 0 25 0 25 -41 -12 -103 -93 -199 -84
-199 18 0 23 6 68 14 100 12 52 12 57 -3 57 -31 0 -61 -31 -121 -128 -84 -136
-98 -151 -149 -163 -31 -7 -46 -7 -51 1 -4 7 -21 4 -51 -9 -69 -32 -105 -27
-128 16 l-11 23 -49 -35 c-147 -106 -210 -76 -197 94 10 119 24 179 46 191 9
5 35 12 57 16 56 9 64 -5 47 -86 -16 -78 -18 -146 -3 -155 6 -4 31 6 57 22 41
25 47 34 54 73 21 130 54 190 104 190 42 0 46 -21 24 -119 -22 -98 -25 -156
-11 -165 5 -4 22 5 39 19 26 21 31 37 48 132 10 59 26 115 34 126 17 21 103
36 113 19 4 -5 0 -47 -8 -93 -8 -46 -15 -88 -15 -94 0 -5 23 27 50 72 57 93
106 138 170 157 72 22 85 9 75 -73 -5 -36 -9 -91 -9 -121 -1 -67 16 -75 73
-36 l37 26 13 112 c7 61 15 118 19 126 4 12 -2 14 -31 10 -29 -3 -37 -1 -37
12 0 26 23 50 55 58 26 7 31 15 40 57 9 40 16 51 40 62 17 7 46 12 65 10 l35
-2 -3 -52z m1104 -8 l38 -29 -29 -9 c-20 -7 -43 -6 -72 1 -51 14 -96 1 -91
-25 2 -10 32 -34 68 -53 83 -45 95 -72 60 -137 -32 -59 -76 -83 -150 -83 -67
0 -134 31 -159 73 -14 24 -14 29 -1 37 22 14 56 12 70 -5 20 -24 83 -39 109
-26 30 16 27 24 -20 50 -105 59 -132 110 -88 165 60 76 192 97 265 41z m-2270
-129 c7 -17 -84 -604 -98 -629 -13 -25 -75 -50 -104 -43 -19 5 -23 11 -19 34
11 64 25 215 21 219 -2 3 -44 1 -93 -4 l-88 -8 -13 -99 c-7 -55 -19 -113 -26
-131 -12 -28 -20 -33 -62 -39 -26 -3 -52 -2 -57 3 -6 6 -4 54 5 126 13 109 13
117 -3 126 -10 5 -27 9 -38 9 -34 0 -51 11 -51 35 0 26 40 135 49 135 3 -1 15
-19 26 -42 33 -69 42 -60 50 49 3 54 9 123 13 152 l7 55 58 15 c86 23 89 17
66 -139 -25 -174 -25 -170 13 -170 17 0 59 5 93 11 l62 11 16 116 c10 64 18
130 19 147 2 21 13 36 37 52 38 26 108 32 117 9z m214 -51 c-7 -8 -17 -12 -22
-9 -6 4 -5 10 3 15 22 14 33 10 19 -6z"/>
<path d="M2517 1668 c-57 -54 -64 -171 -10 -184 49 -13 109 59 120 146 10 76
-49 95 -110 38z"/>
<path d="M3292 1106 c-24 -13 -57 -54 -49 -62 2 -3 25 1 51 8 37 10 46 16 46
34 0 27 -19 35 -48 20z"/>
<path d="M2395 1970 c3 -5 23 -10 43 -9 30 0 33 2 17 9 -28 12 -67 12 -60 0z"/>
</g>
</svg>
